<?xml version="1.0" encoding="UTF-8"?> <svg xmlns="http://www.w3.org/2000/svg" xmlns:xlink="http://www.w3.org/1999/xlink" width="80px" height="80px" viewBox="0 0 80 80"> <!-- Generator: Sketch 55.1 (78136) - https://sketchapp.com --> <title>Consulting</title> <desc>Created with Sketch.</desc> <g id="Consulting" stroke="none" stroke-width="1" fill="none" fill-rule="evenodd"> <path d="M10.0661291,25.5495811 C10.0661291,17.0078488 17.0078614,10.0661165 25.5495937,10.0661165 C34.091326,10.0661165 41.0330583,17.0078488 41.0330583,25.5495811 C41.0330583,29.7700536 39.3322709,33.5873764 36.5984126,36.3842267 C35.7165229,32.6424944 32.995263,29.606274 29.4299087,28.3086363 C30.8409323,27.174778 31.7480189,25.4361953 31.7480189,23.4834394 C31.7480189,20.0692661 28.9637669,17.2850142 25.5495937,17.2850142 C22.1354204,17.2850142 19.3511685,20.0692661 19.3511685,23.4834394 C19.3511685,25.4361953 20.2582551,27.174778 21.6692787,28.3086363 C18.1039244,29.606274 15.3700661,32.6424944 14.5007748,36.3842267 C11.7669165,33.5873764 10.0661291,29.7574551 10.0661291,25.5495811 Z M21.4173103,23.4834394 C21.4173103,21.2031244 23.2692787,19.3511559 25.5495937,19.3511559 C27.8299087,19.3511559 29.6818771,21.2031244 29.6818771,23.4834394 C29.6818771,25.7637543 27.8299087,27.6157229 25.5495937,27.6157229 C23.2692787,27.6157229 21.4173103,25.7637543 21.4173103,23.4834394 Z M16.314948,37.9464315 C16.818885,33.2976126 20.7621921,29.6692661 25.5495937,29.6692661 C30.3243969,29.6692661 34.267704,33.2976126 34.7842394,37.9464315 C32.2015622,39.8739906 29.0141606,41.0330457 25.5495937,41.0330457 C22.0850267,41.0330457 18.8976252,39.8739906 16.314948,37.9464315 Z M14.2614047,38.966904 C17.3102236,41.5369827 21.2535307,43.0991874 25.5495937,43.0991874 C29.8456567,43.0991874 33.7763653,41.5369827 36.8377827,38.966904 L36.9133733,38.966904 L36.9133733,38.9039118 C40.6929008,35.678715 43.1117984,30.8913134 43.1117984,25.5495811 C43.0992,15.8739906 35.2251843,7.9999748 25.5495937,7.9999748 C15.8740031,7.9999748 7.9999874,15.8739906 7.9999874,25.5495811 C7.9999874,30.9039118 10.4062866,35.6913134 14.1984126,38.9039118 L14.1984126,38.966904 L14.2614047,38.966904 Z" id="Fill-1" fill="#3C80BC" fill-rule="nonzero"></path> <path d="M58.3307087,57.2093984 C59.7417323,56.0755401 60.6488189,54.3369574 60.6488189,52.3842016 C60.6488189,48.9701543 57.8645669,46.1857764 54.4503937,46.1857764 C51.0362204,46.1857764 48.2519685,48.9701543 48.2519685,52.3842016 C48.2519685,54.3369574 49.1590551,56.0755401 50.5700787,57.2093984 C47.0047244,58.5071622 44.2708661,61.5432567 43.4015748,65.285115 C40.6551181,62.4881386 38.9669291,58.6709417 38.9669291,54.4504693 C38.9669291,45.908611 45.9086614,38.9668787 54.4503937,38.9668787 C62.992126,38.9668787 69.9338583,45.908611 69.9338583,54.4504693 C69.9338583,58.6709417 68.2330709,62.4881386 65.4992126,65.285115 C64.6173229,61.5432567 61.8834646,58.5071622 58.3307087,57.2093984 M50.3181103,52.3842016 C50.3181103,50.1040126 52.1700787,48.2519181 54.4503937,48.2519181 C56.7307087,48.2519181 58.5826771,50.1040126 58.5826771,52.3842016 C58.5826771,54.6646426 56.7307087,56.516485 54.4503937,56.516485 C52.1700787,56.516485 50.3181103,54.6646426 50.3181103,52.3842016 M45.215748,66.8599181 C45.719685,62.2109733 49.6629921,58.5826267 54.4503937,58.5826267 C59.2251969,58.5826267 63.168504,62.2109733 63.6850394,66.8599181 C61.1023622,68.7873512 57.9149606,69.9465323 54.4503937,69.9465323 C50.9858267,69.9338079 47.7984252,68.7748787 45.215748,66.8599181 M72,54.4504693 C72,44.7747527 64.1259843,36.900737 54.4503937,36.900737 C44.7748031,36.900737 36.9007874,44.7747527 36.9007874,54.4504693 C36.9007874,59.8048 39.3070866,64.5922016 43.0992126,67.8048 L43.0992126,67.8677921 L43.1748031,67.8677921 C46.223622,70.4377449 50.1669291,71.9999496 54.4629921,71.9999496 C58.7590551,71.9999496 62.6897637,70.4377449 65.7511811,67.8677921 L65.8267717,67.8677921 L65.8267717,67.8048 C69.5937008,64.5922016 72,59.8048 72,54.4504693" id="Fill-4" fill="#3C80BC" fill-rule="nonzero"></path> <path d="M62.7149354,34.8346457 L64.7810771,34.8346457 C64.7810771,24.0251969 55.9875024,15.2188976 45.1653291,15.2188976 L45.1653291,17.2850394 C54.8409197,17.2850394 62.7149354,25.1590551 62.7149354,34.8346457" id="Fill-6" fill="#3C80BC" fill-rule="nonzero"></path> <path d="M17.2850646,45.1653543 L15.2315213,45.1653543 C15.2315213,55.9748031 24.025222,64.7811024 34.8472693,64.7811024 L34.8472693,62.7149606 C25.1590803,62.7149606 17.2850646,54.8409449 17.2850646,45.1653543" id="Fill-8" fill="#3C80BC" fill-rule="nonzero"></path> </g> </svg> 