<?xml version="1.0" encoding="UTF-8"?>
<svg width="86px" height="86px" viewBox="0 0 86 86" version="1.1" xmlns="http://www.w3.org/2000/svg" xmlns:xlink="http://www.w3.org/1999/xlink">
    <!-- Generator: Sketch 49 (51002) - http://www.bohemiancoding.com/sketch -->
    <title>ICO_Blue</title>
    <desc>Created with Sketch.</desc>
    <defs>
        <polygon id="path-1" points="0.195339752 0.236546081 24.9181022 0.236546081 24.9181022 25.4499852 0.195339752 25.4499852"></polygon>
        <polygon id="path-3" points="0.0479346927 0.0938329027 11.303536 0.0938329027 11.303536 11.5632558 0.0479346927 11.5632558"></polygon>
    </defs>
    <g id="Page-1" stroke="none" stroke-width="1" fill="none" fill-rule="evenodd">
        <g id="Artboard" transform="translate(-332.000000, -1008.000000)">
            <g id="ICO" transform="translate(355.000000, 1047.000000)">
                <g id="Group-3" transform="translate(0.000000, 0.261464)">
                    <mask id="mask-2" fill="white">
                        <use xlink:href="#path-1"></use>
                    </mask>
                    <g id="Clip-2"></g>
                    <path d="M12.2888298,2.95760289 C6.80440702,3.10315575 2.38642183,7.69831346 2.38642183,13.3260878 C2.38642183,19.0455066 6.94871307,23.6983464 12.5568267,23.6983464 C18.0750795,23.6983464 22.5808112,19.1929463 22.7235314,13.5996733 L19.5694135,13.6449564 C19.4319792,17.4961773 16.3172415,20.5856715 12.5081961,20.5856715 C8.61166849,20.5856715 5.44195706,17.3527808 5.44195706,13.3791877 C5.44195706,9.49454357 8.4710626,6.31798717 12.2470709,6.17755561 L12.2888298,2.95760289 Z M12.5568267,24.237431 C6.65745801,24.237431 1.85782825,19.3425423 1.85782825,13.3260878 C1.85782825,7.30963341 6.65745801,2.41501418 12.5568267,2.41501418 L12.8245594,2.41501418 L12.7687927,6.71178852 L12.5081961,6.71178852 C8.90318785,6.71178852 5.97055064,9.70289979 5.97055064,13.3791877 C5.97055064,17.0554756 8.90318785,20.0465868 12.5081961,20.0465868 C16.1129401,20.0465868 19.0455773,17.0554756 19.0455773,13.3791877 L19.0455773,13.1134189 L23.2555609,13.0527719 L23.2555609,13.3260878 C23.2555609,19.3425423 18.4559311,24.237431 12.5568267,24.237431 Z" id="Fill-1" stroke="#3C80BC" stroke-width="0.5" fill="#3C80BC" mask="url(#mask-2)"></path>
                </g>
                <g id="Group-6" transform="translate(13.253369, 1.079724)">
                    <mask id="mask-4" fill="white">
                        <use xlink:href="#path-3"></use>
                    </mask>
                    <g id="Clip-5"></g>
                    <path d="M5.76529973,10.5713867 C5.86766092,10.5716451 5.98598437,10.5796555 6.13217844,10.5716451 C6.53351536,10.5716451 7.07217844,10.5708699 7.64149919,10.5698363 C8.63065283,10.5677692 9.71228625,10.565702 10.3312674,10.5685444 C10.3021299,7.87345392 9.41660431,5.55407407 7.76235633,3.84864772 C6.08783881,2.12229113 3.76190889,1.17216193 1.02273369,1.09154177 C1.01715957,1.90937123 1.0202,2.76828596 1.0234938,3.60187769 C1.02653423,4.43624462 1.02982803,5.22900947 1.02450728,5.97500431 C3.45989272,6.33081826 5.28921887,8.10342808 5.76529973,10.5713867 Z M10.8354722,11.0894746 L10.5823563,11.087149 C10.0515477,11.0817227 8.78470135,11.0840482 7.64251267,11.0866322 C7.07268518,11.0876658 6.53376873,11.088441 6.13217844,11.088441 L6.13065822,11.088441 C5.86968787,11.088441 5.66648571,11.0881826 5.55069596,11.087149 L5.33710566,11.0850818 L5.30290081,10.8698363 C4.91929973,8.44864772 3.12924582,6.71763997 0.742507278,6.46001723 L0.513714825,6.43546942 L0.515995148,6.2005857 C0.523596226,5.39128338 0.520302426,4.52306632 0.516755256,3.60394488 C0.513208086,2.67939707 0.509660916,1.72384152 0.518022102,0.825908699 L0.520555795,0.567510767 L0.773671698,0.569836348 C3.75962857,0.599035314 6.300669,1.60704565 8.12264744,3.48508183 C9.92638329,5.34477175 10.8653698,7.88508183 10.8380059,10.8310767 L10.8354722,11.0894746 Z" id="Fill-4" stroke="#3C80BC" stroke-width="0.5" fill="#3C80BC" mask="url(#mask-4)"></path>
                </g>
                <g id="Group-9" transform="translate(7.299988, 8.400024)" fill="#3C80BC" stroke="#3C80BC" stroke-width="0.5">
                    <path d="M5.27455957,0.887209302 C2.99829003,0.887209302 1.14641402,2.77583979 1.14641402,5.09728682 C1.14641402,7.41873385 2.99829003,9.30736434 5.27455957,9.30736434 C7.55082911,9.30736434 9.40270512,7.41873385 9.40270512,5.09728682 C9.40270512,2.77583979 7.55082911,0.887209302 5.27455957,0.887209302 M5.27455957,9.82416021 C2.71882372,9.82416021 0.639675472,7.70374677 0.639675472,5.09728682 C0.639675472,2.49082687 2.71882372,0.370413437 5.27455957,0.370413437 C7.83029542,0.370413437 9.90944367,2.49082687 9.90944367,5.09728682 C9.90944367,7.70374677 7.83029542,9.82416021 5.27455957,9.82416021" id="Fill-7"></path>
                    <path d="M5.00621617,7.2878553 L5.00621617,6.71162791 C4.6390841,6.6997416 4.27220539,6.59276486 4.06241563,6.4501292 L4.21975795,5.89147287 C4.44677682,6.02816537 4.77311644,6.15297158 5.12859353,6.15297158 C5.49572561,6.15297158 5.74605445,5.96873385 5.74605445,5.68372093 C5.74605445,5.41627907 5.54209218,5.24392765 5.11111105,5.08346253 C4.49947763,4.85762274 4.10320809,4.57235142 4.10320809,4.01989664 C4.10320809,3.50878553 4.45260431,3.11653747 5.04118113,3.00981912 L5.04118113,2.42739018 L5.51878221,2.42739018 L5.51878221,2.98010336 C5.88591429,2.99198966 6.1364965,3.08113695 6.32297628,3.17596899 L6.16563396,3.72273902 C6.02577412,3.65736434 5.76936442,3.52067183 5.37334825,3.52067183 C4.96542372,3.52067183 4.81973639,3.73462532 4.81973639,3.93669251 C4.81973639,4.18036176 5.02952615,4.31679587 5.5246097,4.51886305 C6.17728895,4.76847545 6.46841024,5.08940568 6.46841024,5.61834625 C6.46841024,6.12325581 6.12484151,6.56899225 5.48381725,6.67571059 L5.48381725,7.2878553 L5.00621617,7.2878553 Z" id="Fill-9"></path>
                </g>
            </g>
            <g id="wallet" transform="translate(351.000000, 1030.000000)" fill="#3C80BC" fill-rule="nonzero">
                <path d="M48,22.3603722 L45.6736618,22.3603722 L45.6736618,11.7665046 C45.6736618,9.22672273 43.5865164,7.16052509 41.0209855,7.16052509 L37.870214,7.16052509 L34.6458893,1.42146944 C34.1544726,0.544392551 33.2192751,0 32.2050224,0 C31.7322836,0 31.2633094,0.120689449 30.8492104,0.348164694 L18.4748925,7.16038175 L4.65267635,7.16038175 C2.08714538,7.16038175 0,9.22657939 0,11.7663613 L0,43.3940205 C0,45.9338024 2.08714538,48 4.65267635,48 L41.0209855,48 C43.5865164,48 45.6736618,45.9338024 45.6736618,43.3940205 L45.6736618,34.1055197 L48,34.1055197 L48,22.3603722 Z M41.0209855,9.0028309 C42.4539704,9.0028309 43.6245962,10.0805791 43.7818379,11.4596209 L40.284874,11.4596209 L38.9057509,9.0028309 L41.0209855,9.0028309 Z M31.7545812,1.95840849 C32.1909778,1.71616957 32.7782453,1.88559347 33.0191756,2.31589006 L38.1557396,11.4587609 L14.4959233,11.4587609 L31.7545812,1.95840849 Z M43.8125334,43.3940205 C43.8125334,44.9176889 42.5599566,46.1576942 41.0208407,46.1576942 L4.65267635,46.1576942 C3.11356047,46.1576942 1.86098367,44.9176889 1.86098367,43.3940205 L1.86098367,11.7665046 C1.86098367,10.2428362 3.11356047,9.0028309 4.65267635,9.0028309 L15.1286548,9.0028309 L10.6657979,11.4597642 L5.23429709,11.4597642 C4.71971404,11.4597642 4.30373286,11.8724304 4.30373286,12.3809888 C4.30373286,12.8895472 4.71971404,13.3022134 5.23429709,13.3022134 L7.31869146,13.3022134 L41.3196869,13.3022134 L43.8125334,13.3022134 L43.8125334,22.3612322 L37.0075562,22.3612322 C33.8473734,22.3612322 31.2754717,24.9074643 31.2754717,28.0357864 L31.2754717,28.4319688 C31.2754717,31.5604343 33.8475182,34.106523 37.0075562,34.106523 L43.8125334,34.106523 L43.8125334,43.3940205 Z M46.1388715,32.2632138 L45.6736618,32.2632138 L37.0075562,32.2632138 C34.8729198,32.2632138 33.1364554,30.5443209 33.1364554,28.4309655 L33.1364554,28.034783 C33.1364554,25.921571 34.872775,24.2025347 37.0075562,24.2025347 L45.6736618,24.2025347 L46.1388715,24.2025347 L46.1388715,32.2632138 Z M39.857744,28.308556 C39.857744,29.4324586 38.9383286,30.3425029 37.8031763,30.3425029 C36.6678793,30.3425029 35.7486087,29.4323152 35.7486087,28.308556 C35.7486087,27.1847968 36.6680241,26.2746091 37.8031763,26.2746091 C38.9384734,26.2744658 39.857744,27.1855134 39.857744,28.308556 Z" id="Shape"></path>
            </g>
        </g>
    </g>
</svg>