<?xml version="1.0" encoding="UTF-8"?> <svg xmlns="http://www.w3.org/2000/svg" xmlns:xlink="http://www.w3.org/1999/xlink" width="70px" height="70px" viewBox="0 0 70 70"> <!-- Generator: Sketch 53.1 (72631) - https://sketchapp.com --> <title>Custom_Blockchain_Solutions</title> <desc>Created with Sketch.</desc> <g id="Custom_Blockchain_Solutions" stroke="none" stroke-width="1" fill="none" fill-rule="evenodd"> <g id="Blockchain" transform="translate(1.000000, 4.000000)" fill="#3C80BC" fill-rule="nonzero" stroke="#3C80BC" stroke-width="0.35"> <path d="M31.806434,51.117218 C20.9518994,51.117218 12.1213131,42.2216749 12.1213131,31.2872999 C12.1213131,20.352925 20.9518994,11.4573775 31.806434,11.4573775 C42.6609686,11.4573775 51.4915562,20.3529221 51.4915562,31.2872999 C51.4915562,42.2216777 42.6609686,51.117218 31.806434,51.117218 Z M31.806434,13.2431755 C21.9292261,13.2431755 13.8940713,21.3374377 13.8940713,31.2872999 C13.8940713,41.2371621 21.9292261,49.3314198 31.806434,49.3314198 C41.6836418,49.3314198 49.7187981,41.237159 49.7187981,31.2872998 C49.7187981,21.3374405 41.6836418,13.2431755 31.806434,13.2431755 Z" id="Shape"></path> <path d="M31.806434,47.0031929 C23.2039374,47.0031929 16.2067411,39.9530742 16.2067411,31.2872999 C16.2067411,22.6215256 23.2039374,15.5728569 31.806434,15.5728569 C40.4089305,15.5728569 47.4061283,22.6215256 47.4061283,31.2872999 C47.4061283,39.9530742 40.4089305,47.0031929 31.806434,47.0031929 Z M31.806434,17.3586563 C24.1827077,17.3586563 17.9794992,23.6074955 17.9794992,31.2872998 C17.9794992,38.9685584 24.1827077,45.2173947 31.806434,45.2173947 C39.4301603,45.2173947 45.6333701,38.9685584 45.6333701,31.2872998 C45.6333701,23.6074955 39.4301603,17.3586563 31.806434,17.3586563 Z" id="Shape"></path> <path d="M34.7470759,12.3502764 L33.1215664,12.3502764 L33.1215664,4.03933564 C33.1215664,3.58706924 33.4853572,3.22060245 33.9343212,3.22060245 L38.8267294,3.22060245 L38.8267294,4.85806883 L34.7470759,4.85806883 L34.7470759,12.3502764 Z" id="Path"></path> <rect id="Rectangle" x="33.1215664" y="50.1036176" width="1.62550955" height="6.36081512"></rect> <path d="M59.8760671,43.6729993 L58.2505577,43.6729993 L58.2505577,39.5633397 L49.3333531,39.5633397 L49.3333531,37.9258733 L59.0633123,37.9258733 C59.5122762,37.9258733 59.8760671,38.2923401 59.8760671,38.7446065 L59.8760671,43.6729993 L59.8760671,43.6729993 Z" id="Path"></path> <path d="M28.7098816,12.3502764 L27.0843721,12.3502764 L27.0843721,8.28424093 L23.2429149,8.28424093 L23.2429149,6.6467747 L27.8971268,6.6467747 C28.3460908,6.6467747 28.7098816,7.01324148 28.7098816,7.46550789 L28.7098816,12.3502764 Z" id="Path"></path> <rect id="Rectangle" x="47.7627009" y="20.4518099" width="8.9749491" height="1.63746638"></rect> <rect id="Rectangle" x="49.9945283" y="32.3241679" width="10.5441576" height="1.63746638"></rect> <path d="M41.7659279,7.61674812 C41.5248444,7.61674812 41.2794299,7.59348039 41.0340155,7.54403651 C40.0509142,7.34771511 39.2035129,6.77765578 38.6462777,5.937109 C38.0890425,5.09656222 37.8898238,4.08877952 38.0861555,3.09844695 C38.2810433,2.10811423 38.8469401,1.25302531 39.6813491,0.693145556 C40.5143146,0.13181166 41.5205135,-0.0674183151 42.4992839,0.128903231 C44.5275618,0.534634179 45.8513559,2.52838762 45.4471439,4.57449353 L45.4471439,4.57449353 C45.0920148,6.37047039 43.519919,7.61674812 41.7659279,7.61674812 Z M41.761597,1.69220356 C41.3443925,1.69220356 40.938737,1.81581335 40.5850516,2.05430763 C40.1115461,2.37278467 39.7910637,2.85704424 39.6799055,3.41837814 C39.5687472,3.97971203 39.6813491,4.55122565 39.9975007,5.02675904 C40.3136522,5.50229317 40.7943757,5.82658722 41.3516107,5.93856314 C42.4935094,6.16833199 43.6238594,5.41358498 43.8533939,4.25456205 L43.8533939,4.25456205 C43.9631087,3.69322815 43.8505068,3.12171453 43.5343552,2.6461804 C43.2196474,2.16919198 42.7389239,1.84635222 42.1816887,1.7343763 C42.0416581,1.70674585 41.9016276,1.69220356 41.761597,1.69220356 Z" id="Shape"></path> <path d="M33.9343212,62.7598074 C31.8641785,62.7598074 30.1809244,61.0641717 30.1809244,58.9788016 C30.1809244,56.8934315 31.8641785,55.1977958 33.9343212,55.1977958 C36.0030203,55.1977958 37.6862742,56.8934315 37.6862742,58.9788016 C37.6862742,61.0641717 36.0030203,62.7598074 33.9343212,62.7598074 Z M33.9343212,56.8352621 C32.7606629,56.8352621 31.806434,57.79651 31.806434,58.9788014 C31.806434,60.1610928 32.7606629,61.1223408 33.9343212,61.1223408 C35.1065359,61.1223408 36.0607648,60.1610928 36.0607648,58.9788014 C36.0607648,57.79651 35.1065359,56.8352621 33.9343212,56.8352621 Z" id="Shape"></path> <path d="M59.0633124,49.8898453 C56.9931698,49.8898453 55.3099157,48.1942096 55.3099157,46.1102938 C55.3099157,44.0249238 56.9931698,42.3292881 59.0633124,42.3292881 C61.1334551,42.3292881 62.8167092,44.0249238 62.8167092,46.1102938 C62.8167092,48.1942098 61.1334551,49.8898453 59.0633124,49.8898453 Z M59.0633124,43.9667544 C57.8896542,43.9667544 56.9354252,44.9280024 56.9354252,46.1102938 C56.9354252,47.2911311 57.8896542,48.2523791 59.0633124,48.2523791 C60.2369707,48.2523791 61.1911996,47.2911311 61.1911996,46.1102938 C61.1911996,44.9280024 60.2369707,43.9667544 59.0633124,43.9667544 Z" id="Shape"></path> <path d="M20.8883803,11.2465137 C18.8196827,11.2465137 17.1364285,9.55087795 17.1364285,7.46550789 C17.1364285,5.38159196 18.8196827,3.68595701 20.8883803,3.68595701 C22.9585229,3.68595701 24.641777,5.38159196 24.641777,7.46550789 C24.641777,9.55087795 22.9585229,11.2465137 20.8883803,11.2465137 Z M20.8883803,5.32342264 C19.716167,5.32342264 18.7619381,6.28467063 18.7619381,7.46550789 C18.7619381,8.64779929 19.716167,9.60904727 20.8883803,9.60904727 C22.0620386,9.60904727 23.0162675,8.64779929 23.0162675,7.46550789 C23.0162675,6.28467063 22.0620386,5.32342264 20.8883803,5.32342264 Z" id="Shape"></path> <path d="M6.9603919,24.1979141 C4.89024927,24.1979141 3.20699516,22.5022784 3.20699516,20.4169083 C3.20699516,18.3329924 4.89024927,16.6373554 6.9603919,16.6373554 C9.03053452,16.6373554 10.7137894,18.3329924 10.7137894,20.4169083 C10.7137894,22.5022784 9.03053526,24.1979141 6.9603919,24.1979141 Z M6.9603919,18.2748231 C5.78673363,18.2748231 4.8325047,19.2360711 4.8325047,20.4169083 C4.8325047,21.5991997 5.78673363,22.5604477 6.9603919,22.5604477 C8.13405017,22.5604477 9.08827983,21.5991997 9.08827983,20.4169083 C9.08827983,19.2360711 8.13405017,18.2748231 6.9603919,18.2748231 Z" id="Shape"></path> <path d="M59.0633124,25.0515487 C56.9931698,25.0515487 55.3099157,23.355913 55.3099157,21.270543 C55.3099157,19.1851729 56.9931698,17.4895372 59.0633124,17.4895372 C61.1334551,17.4895372 62.8167092,19.1851729 62.8167092,21.270543 C62.8167092,23.355913 61.1334551,25.0515487 59.0633124,25.0515487 Z M59.0633124,19.1270036 C57.8896542,19.1270036 56.9354252,20.0882516 56.9354252,21.270543 C56.9354252,22.4528344 57.8896542,23.4140823 59.0633124,23.4140823 C60.2369707,23.4140823 61.1911996,22.4528344 61.1911996,21.270543 C61.1911996,20.0882516 60.2369707,19.1270036 59.0633124,19.1270036 Z" id="Shape"></path> <path d="M63.4793279,36.9239069 C61.4091853,36.9239069 59.7259312,35.2282712 59.7259312,33.1429011 C59.7259312,31.0575311 61.4091853,29.3618954 63.4793279,29.3618954 C65.548027,29.3618954 67.231281,31.0575311 67.231281,33.1429011 C67.231281,35.2282712 65.548027,36.9239069 63.4793279,36.9239069 Z M63.4793279,30.9993618 C62.3056697,30.9993618 61.3514407,31.9606097 61.3514407,33.1429011 C61.3514407,34.3251925 62.3056697,35.2864405 63.4793279,35.2864405 C64.6515427,35.2864405 65.6057716,34.3251925 65.6057716,33.1429011 C65.6057716,31.9606097 64.6515427,30.9993618 63.4793279,30.9993618 Z" id="Shape"></path> <rect id="Rectangle" x="6.9603919" y="33.8147568" width="6.45728606" height="1.63746638"></rect> <path d="M13.4176787,28.0850788 L6.9603919,28.0850788 C6.51142796,28.0850788 6.14763712,27.718612 6.14763712,27.2663456 L6.14763712,22.8411146 L7.77314667,22.8411146 L7.77314667,26.4476124 L13.4176787,26.4476124 L13.4176787,28.0850788 L13.4176787,28.0850788 Z" id="Path"></path> <path d="M4.01974993,38.4130415 C1.95105127,38.4130415 0.267797157,36.7174058 0.267797157,34.63349 C0.267797157,32.5481199 1.95105127,30.8524842 4.01974993,30.8524842 C6.08989256,30.8524842 7.77314667,32.5481199 7.77314667,34.63349 C7.77314667,36.7174058 6.08989256,38.4130415 4.01974993,38.4130415 Z M4.01974993,32.4899505 C2.84753563,32.4899505 1.8933067,33.4511985 1.8933067,34.6334899 C1.8933067,35.8143271 2.84753563,36.7755751 4.01974993,36.7755751 C5.1934082,36.7755751 6.14763712,35.8143271 6.14763712,34.6334899 C6.14763712,33.4511985 5.1934082,32.4899505 4.01974993,32.4899505 Z" id="Shape"></path> <path d="M26.2759483,59.6913757 L21.38354,59.6913757 L21.38354,58.0539093 L25.4631935,58.0539093 L25.4631935,49.0711121 L27.0887031,49.0711121 L27.0887031,58.8726424 C27.0887029,59.3249089 26.7249122,59.6913757 26.2759483,59.6913757 Z" id="Path"></path> <path d="M18.4428994,62.8572408 C16.3727568,62.8572408 14.6895027,61.1616051 14.6895027,59.0762351 C14.6895027,56.990865 16.3727568,55.2952293 18.4428994,55.2952293 C20.513042,55.2952293 22.1962947,56.990865 22.1962947,59.0762351 C22.1962947,61.1616051 20.513042,62.8572408 18.4428994,62.8572408 Z M18.4428994,56.9326957 C17.2692411,56.9326957 16.3150122,57.8939437 16.3150122,59.0762351 C16.3150122,60.2585265 17.2692411,61.2197745 18.4428994,61.2197745 C19.6165577,61.2197745 20.5707866,60.2585265 20.5707866,59.0762351 C20.5707866,57.8939437 19.6165577,56.9326957 18.4428994,56.9326957 Z" id="Shape"></path> <rect id="Rectangle" x="33.1215664" y="16.4657558" width="1.62550955" height="7.84704112"></rect> <rect id="Rectangle" x="33.1215664" y="30.5819968" width="1.62550955" height="15.5282999"></rect> <path d="M42.6494197,35.452223 L28.0559244,35.452223 L28.0559244,33.8147567 L41.8366649,33.8147567 L41.8366649,21.270543 L43.4621744,21.270543 L43.4621744,34.6334899 C43.4621744,35.0857564 43.0983837,35.452223 42.6494197,35.452223 Z" id="Path"></path> <rect id="Rectangle" x="17.471347" y="33.8147568" width="4.57914395" height="1.63746638"></rect> <rect id="Rectangle" x="17.9491833" y="26.4476124" width="13.6970109" height="1.63746638"></rect> <path d="M33.9343212,31.0546225 C33.691794,31.0546225 33.4478231,31.0313548 33.2009651,30.9819109 C31.1726873,30.5747256 29.8503367,28.5809722 30.2531051,26.5363206 C30.4494366,25.5459879 31.0153334,24.6908989 31.8482988,24.1310192 C32.6827077,23.5711394 33.6816887,23.369001 34.6662335,23.5667769 C35.6493348,23.7630983 36.4981799,24.3331576 37.0539714,25.1737044 C37.6112064,26.0127969 37.8104252,27.0220344 37.6140936,28.0123672 C37.2604081,29.8083449 35.6883124,31.0546225 33.9343212,31.0546225 Z M33.9285468,25.1300773 C33.5127859,25.1300773 33.1056868,25.2536871 32.7520013,25.4921814 C32.2799396,25.8106585 31.9580135,26.294918 31.8468552,26.8562519 C31.6187642,28.0138214 32.3694435,29.1452147 33.5185604,29.3764377 C34.6763389,29.6062065 35.7922526,28.8514595 36.0203437,27.6924358 L36.0203437,27.6924358 C36.131502,27.1311019 36.0189,26.5595883 35.7027485,26.0840542 C35.386597,25.6070658 34.9058735,25.284226 34.3486385,25.1722501 C34.2086079,25.1446196 34.0685773,25.1300773 33.9285468,25.1300773 Z" id="Shape"></path> <path d="M24.9651466,38.4144958 C24.7182886,38.4144958 24.469987,38.3897738 24.223129,38.3403299 C22.1948511,37.9345989 20.871057,35.9408455 21.2752689,33.8947396 C21.4716005,32.9044069 22.0374972,32.0493179 22.8704626,31.4894382 C23.7048715,30.9281043 24.7038526,30.7288743 25.6883974,30.9251958 C26.6714987,31.1215172 27.5189,31.6915766 28.0761352,32.5321234 C28.6333704,33.3726701 28.8325891,34.3804534 28.6362574,35.3707861 C28.4413696,36.3611189 27.8754728,37.2162078 27.0410637,37.7760875 C26.4174224,38.1963608 25.6985026,38.4144958 24.9651466,38.4144958 Z M24.9507105,32.4884963 C24.5349496,32.4884963 24.1278505,32.6121061 23.774165,32.8506004 C23.3021033,33.1690774 22.9801772,33.653337 22.8690189,34.2146709 C22.7593042,34.7760048 22.8719061,35.3475184 23.1880577,35.8230525 C23.5027655,36.300041 23.983489,36.6228807 24.5407241,36.7348567 C25.0994028,36.8453784 25.6638559,36.7334024 26.1373613,36.4149253 C26.6108668,36.0964483 26.9313491,35.6121887 27.0425074,35.0508548 L27.0425074,35.0508548 C27.1536657,34.4895209 27.0410637,33.9180073 26.7249122,33.4424732 C26.4087607,32.966939 25.9280372,32.642645 25.3708022,32.5306691 C25.2307716,32.5030386 25.090741,32.4884963 24.9507105,32.4884963 Z" id="Shape"></path> </g> </g> </svg> 