<?xml version="1.0" encoding="UTF-8"?> <svg xmlns="http://www.w3.org/2000/svg" xmlns:xlink="http://www.w3.org/1999/xlink" width="80px" height="80px" viewBox="0 0 80 80"> <!-- Generator: Sketch 55.1 (78136) - https://sketchapp.com --> <title>Corda_dApp</title> <desc>Created with Sketch.</desc> <g id="Corda_dApp" stroke="none" stroke-width="1" fill="none" fill-rule="evenodd"> <g id="dApp" transform="translate(19.000000, 10.000000)" stroke="#3C80BC"> <path d="M0,0 L10.2957746,0 L16.3521127,0 C31.4039296,0 43,11.4882 43,26.4 L43,32.4 C43,47.3118 31.4039296,60 16.3521127,60 L10.2957746,60 L0,60" id="Stroke-1" stroke-width="2.4"></path> <path d="M0,15 L6.62321127,15 L12.5192535,15 C22.2015212,15 28.6478873,20.7438 28.6478873,28.2 L28.6478873,31.2 C28.6478873,38.6562 22.2015212,45 12.5192535,45 L6.62321127,45 L0,45" id="Stroke-3" stroke-width="2.4"></path> <g id="Page-1" transform="translate(0.000000, 28.750000)" fill="#3C80BC" fill-rule="nonzero" stroke-width="0.5"> <polygon id="Fill-1" points="0 2.5 12.0147059 2.5 12.0147059 0 0 0"></polygon> <polygon id="Fill-2" points="21 2.5 23.5294118 2.5 23.5294118 0 21 0"></polygon> <polygon id="Fill-3" points="15.8088235 2.5 18.3382353 2.5 18.3382353 0 15.8088235 0"></polygon> </g> </g> </g> </svg> 