<?xml version="1.0" encoding="UTF-8"?> <svg xmlns="http://www.w3.org/2000/svg" xmlns:xlink="http://www.w3.org/1999/xlink" width="70px" height="70px" viewBox="0 0 70 70"> <!-- Generator: Sketch 53.1 (72631) - https://sketchapp.com --> <title>Smart_Contracts</title> <desc>Created with Sketch.</desc> <g id="Smart_Contracts" stroke="none" stroke-width="1" fill="none" fill-rule="evenodd"> <g id="smart_Contracts" transform="translate(13.000000, 5.000000)" fill="#3386BC" fill-rule="nonzero"> <path d="M40.9134328,0 L11.4925373,0 C11.4812418,0 11.470209,0.00129589632 11.4589134,0.00168466523 C11.4480119,0.00207343412 11.4371104,0.00259179266 11.426209,0.00323974082 C11.3840478,0.00596112311 11.3424119,0.0106263499 11.3019582,0.0185313175 C11.3013015,0.0186609071 11.3006448,0.0186609071 11.3001194,0.0187904967 C11.2562507,0.0273434125 11.2138269,0.0393952484 11.1723224,0.0535205184 C11.1649672,0.0559827214 11.1577433,0.0588336933 11.1503881,0.061425486 C11.1111164,0.0758099353 11.0728955,0.0920086392 11.0361194,0.111058315 C11.0338866,0.112224622 11.0315224,0.113131749 11.0292896,0.114298056 C10.990806,0.134514039 10.9544239,0.157710584 10.9192239,0.182591792 C10.9113433,0.188164146 10.9037254,0.19399568 10.8959761,0.199827214 C10.8611701,0.226133909 10.8274149,0.253736501 10.7965493,0.284190065 C10.7964179,0.284319655 10.7961552,0.284449244 10.7960239,0.284578834 L0.288561193,10.6517495 C0.288429851,10.651879 0.288298507,10.6520086 0.288167165,10.6521382 C0.257301493,10.6827214 0.22919403,10.7158963 0.202662686,10.7502376 C0.196752239,10.758013 0.190841791,10.7656588 0.185062686,10.7734341 C0.159844776,10.8080346 0.136465672,10.8439309 0.115976119,10.8816415 C0.114662687,10.8842333 0.113480597,10.886825 0.112167164,10.8894168 C0.0932537314,10.9251836 0.0769671642,10.9623758 0.062519403,11.0006047 C0.0596298507,11.0082505 0.0567402986,11.0157667 0.0539820895,11.0235421 C0.0397970149,11.0641037 0.0277134328,11.1055723 0.0190447761,11.1484665 C0.0187820895,11.1500216 0.0186507463,11.1517063 0.0182567165,11.1532613 C0.010638806,11.1922678 0.00604179105,11.2321814 0.00315223881,11.2726134 C0.0023641791,11.2840173 0.00183880597,11.2952916 0.00144477612,11.3066955 C0.00131343284,11.317581 0,11.3282073 0,11.3390929 L0,56.9546436 C0,58.6338661 1.3846209,60 3.08656716,60 L40.9134328,60 C42.6153791,60 44,58.6338661 44,56.9546436 L44,3.04535637 C44,1.36613391 42.6153791,0 40.9134328,0 Z M10.5074627,3.31827214 L10.5074627,9.26565875 C10.5074627,9.87304536 10.0066507,10.3671706 9.39104477,10.3671706 L3.36317612,10.3671706 L10.5074627,3.31827214 Z M42.0298507,56.9546436 C42.0298507,57.5620302 41.5290388,58.0561555 40.9134328,58.0561555 L3.08656716,58.0561555 C2.47096119,58.0561555 1.97014925,57.5620302 1.97014925,56.9546436 L1.97014925,12.3110151 L9.39104477,12.3110151 C11.092991,12.3110151 12.4776119,10.9448812 12.4776119,9.26565875 L12.4776119,1.94384449 L40.9134328,1.94384449 C41.5290388,1.94384449 42.0298507,2.43796976 42.0298507,3.04535637 L42.0298507,56.9546436 Z" id="Shape"></path> <path d="M9.39104477,27.861771 L34.6089552,27.861771 C35.1529791,27.861771 35.5940298,27.4267386 35.5940298,26.8898487 C35.5940298,26.352959 35.1529791,25.9179266 34.6089552,25.9179266 L9.39104477,25.9179266 C8.8470209,25.9179266 8.40597014,26.352959 8.40597014,26.8898487 C8.40597014,27.4267386 8.8470209,27.861771 9.39104477,27.861771 Z" id="Shape"></path> <path d="M9.39104477,33.0453564 L34.6089552,33.0453564 C35.1529791,33.0453564 35.5940298,32.610324 35.5940298,32.0734341 C35.5940298,31.5365442 35.1529791,31.1015119 34.6089552,31.1015119 L9.39104477,31.1015119 C8.8470209,31.1015119 8.40597014,31.5365442 8.40597014,32.0734341 C8.40597014,32.610324 8.8470209,33.0453564 9.39104477,33.0453564 Z" id="Shape"></path> <path d="M9.39104477,38.2289416 L22,38.2289416 C22.5440239,38.2289416 22.9850746,37.7939092 22.9850746,37.2570195 C22.9850746,36.7201296 22.5440239,36.2850972 22,36.2850972 L9.39104477,36.2850972 C8.8470209,36.2850972 8.40597014,36.7201296 8.40597014,37.2570195 C8.40597014,37.7939092 8.8470209,38.2289416 9.39104477,38.2289416 Z" id="Shape"></path> <path d="M22.9850746,42.4406047 C22.9850746,41.9037149 22.5440239,41.4686825 22,41.4686825 L9.39104477,41.4686825 C8.8470209,41.4686825 8.40597014,41.9037149 8.40597014,42.4406047 C8.40597014,42.9774946 8.8470209,43.412527 9.39104477,43.412527 L22,43.412527 C22.5440239,43.412527 22.9850746,42.9774946 22.9850746,42.4406047 Z" id="Shape"></path> <path d="M27.1880597,16.7818575 C27.1880597,16.2449676 26.747009,15.8099352 26.2029851,15.8099352 C25.6589612,15.8099352 25.2179105,16.2449676 25.2179105,16.7818575 C25.2179105,18.6765875 26.9986627,20.2075594 29.4208956,20.5377537 L29.4208956,20.6695464 C29.4208956,21.2064362 29.8619463,21.6414686 30.4059702,21.6414686 C30.949994,21.6414686 31.3910448,21.2064362 31.3910448,20.6695464 L31.3910448,20.5377537 C33.8132776,20.2074297 35.5940298,18.6764579 35.5940298,16.7818575 C35.5940298,14.887257 33.8132776,13.3561555 31.3910448,13.0259611 L31.3910448,9.30336932 C32.5776,9.54764579 33.6238807,10.2102376 33.6238807,11.0799136 C33.6238807,11.6168034 34.0649314,12.0518358 34.6089552,12.0518358 C35.1529791,12.0518358 35.5940298,11.6168034 35.5940298,11.0799136 C35.5940298,9.18518359 33.8132776,7.65421166 31.3910448,7.32401727 L31.3910448,7.19222462 C31.3910448,6.65533477 30.949994,6.22030237 30.4059702,6.22030237 C29.8619463,6.22030237 29.4208956,6.65533477 29.4208956,7.19222462 L29.4208956,7.32401727 C26.9986627,7.65434125 25.2179105,9.18531317 25.2179105,11.0799136 C25.2179105,12.974514 26.9986627,14.5056155 29.4208956,14.8358099 L29.4208956,18.5584017 C28.2343403,18.3141253 27.1880597,17.6516631 27.1880597,16.7818575 Z M33.6238807,16.7818575 C33.6238807,17.6516631 32.5776,18.3141253 31.3910448,18.5584017 L31.3910448,15.0053131 C32.5776,15.2495896 33.6238807,15.9120519 33.6238807,16.7818575 Z M27.1880597,11.0799136 C27.1880597,10.210108 28.2343403,9.54764579 29.4208956,9.30336932 L29.4208956,12.8564579 C28.2343403,12.6121814 27.1880597,11.9497192 27.1880597,11.0799136 Z" id="Shape"></path> <path d="M36.5475821,41.5319222 C36.0738269,41.2679481 35.4729314,41.4326566 35.2053851,41.9000864 L33.179809,45.4374946 L32.9022807,45.2267819 C32.6683582,45.0491145 32.366006,44.9840605 32.0786269,45.0501512 C31.7911165,45.1159827 31.5486567,45.3054427 31.4179702,45.5664362 L30.3946746,47.6107127 L30.065791,47.2386609 C29.5832358,46.6928294 28.8654448,46.4486825 28.1442388,46.5870842 C27.4235582,46.724838 26.8494567,47.2157235 26.6085731,47.8998272 L25.4783642,51.109244 L22.7892418,47.7579266 C22.6220418,47.5495464 22.3756418,47.4177537 22.1073075,47.3933909 C21.8396298,47.3699352 21.5724776,47.4540389 21.3694209,47.6287257 L18.5142807,50.0857451 C18.1042269,50.4386177 18.061803,51.0526134 18.4193193,51.4570626 C18.7770986,51.8616415 19.3991403,51.9032397 19.809194,51.550756 L21.8857314,49.7637149 L24.4534925,52.9638012 C24.7428418,53.3241901 25.180609,53.5289416 25.6374209,53.5289416 C25.7212179,53.5289416 25.8056716,53.5219439 25.8898627,53.5079481 C26.4334925,53.4171059 26.883606,53.0414255 27.0644656,52.5277321 L28.4694448,48.5380561 C28.4744358,48.5239309 28.4819224,48.5028077 28.5190925,48.4955507 C28.5558686,48.4884234 28.5711044,48.50527 28.5809552,48.5165442 L29.880991,49.9873866 C30.0974448,50.232311 30.4239642,50.3543845 30.7503523,50.3123974 C31.077003,50.27054 31.3608358,50.070324 31.5066269,49.7790065 L32.652203,47.4905831 L32.8774567,47.6616415 C33.1037612,47.8336069 33.3944239,47.899568 33.6743165,47.8441036 C33.954209,47.7879914 34.1956179,47.6148596 34.3361552,47.369676 L36.9204656,42.8565875 C37.1882746,42.3890281 37.021206,41.7960259 36.5475821,41.5319222 Z" id="Shape"></path> </g> </g> </svg> 