<?xml version="1.0" encoding="UTF-8"?> <svg xmlns="http://www.w3.org/2000/svg" xmlns:xlink="http://www.w3.org/1999/xlink" width="80px" height="80px" viewBox="0 0 80 80"> <!-- Generator: Sketch 53.1 (72631) - https://sketchapp.com --> <title>Supply_Chain</title> <desc>Created with Sketch.</desc> <g id="Supply_Chain" stroke="none" stroke-width="1" fill="none" fill-rule="evenodd"> <g id="Transportation" transform="translate(40.000000, 40.500000) scale(-1, 1) translate(-40.000000, -40.500000) translate(7.000000, 17.000000)" fill="#3C80BC" fill-rule="nonzero"> <path d="M65.773125,38.8441176 L65.773125,1.84544118 C65.773125,1.08198873 65.1575165,0.463088235 64.398125,0.463088235 L24.21375,0.463088235 C23.4543585,0.463088235 22.83875,1.08198873 22.83875,1.84544118 L22.83875,10.0082353 L7.665625,10.0082353 C7.19056048,10.0072796 6.74865875,10.2529319 6.496875,10.6579412 L0.433125,20.4726471 C0.297510066,20.6926364 0.226048887,20.9464828 0.226875,21.2052941 L0.226875,38.8441176 C0.226875,39.6075701 0.842483469,40.2264706 1.601875,40.2264706 L5.630625,40.2264706 C6.28431521,43.8852223 9.45090532,46.5478687 13.1484375,46.5478687 C16.8459697,46.5478687 20.0125598,43.8852223 20.66625,40.2264706 L42.25375,40.2264706 C42.3474602,40.2361784 42.4419148,40.2361784 42.535625,40.2264706 C43.18127,43.8942111 46.3519527,46.5672514 50.056875,46.5672514 C53.7617973,46.5672514 56.93248,43.8942111 57.578125,40.2264706 L64.398125,40.2264706 C65.1575165,40.2264706 65.773125,39.6075701 65.773125,38.8441176 Z M13.151875,31.1582353 C9.46165238,31.1633405 6.29976484,33.8133057 5.630625,37.4617647 L2.976875,37.4617647 L2.976875,22.6636765 L22.83875,22.6636765 L22.83875,37.4617647 L20.66625,37.4617647 C19.9975853,33.8158621 16.8395048,31.166666 13.151875,31.1582353 L13.151875,31.1582353 Z M8.42875,12.7729412 L22.86625,12.7729412 L22.86625,19.8989706 L4.021875,19.8989706 L8.42875,12.7729412 Z M13.151875,43.7722059 C11.1686264,43.7722039 9.38079152,42.5707645 8.622479,40.7284155 C7.86416648,38.8860664 8.28481171,36.7658666 9.68816401,35.3569885 C11.0915163,33.9481104 13.2010268,33.5281919 15.03251,34.2931445 C16.8639932,35.0580972 18.0565316,36.8571772 18.05375,38.8510294 C18.0499568,41.5700378 15.8564232,43.7722086 13.151875,43.7722059 Z M50.06375,43.7722059 C48.0805014,43.7722039 46.2926665,42.5707645 45.534354,40.7284155 C44.7760415,38.8860664 45.1966867,36.7658666 46.600039,35.3569885 C48.0033913,33.9481104 50.1129018,33.5281919 51.944385,34.2931445 C53.7758682,35.0580972 54.9684066,36.8571772 54.965625,38.8510294 C54.9618318,41.5700378 52.7682982,43.7722086 50.06375,43.7722059 Z M50.06375,31.1582353 C46.3627161,31.1663963 43.1969843,33.8341294 42.5425,37.4963235 C42.4487898,37.4866157 42.3543352,37.4866157 42.260625,37.4963235 L25.58875,37.4963235 L25.58875,3.22779412 L63.023125,3.22779412 L63.023125,37.4617647 L57.578125,37.4617647 C56.9094603,33.8158621 53.7513798,31.166666 50.06375,31.1582353 L50.06375,31.1582353 Z" id="Shape"></path> <polygon id="Path" transform="translate(44.996875, 17.047868) scale(-1, 1) translate(-44.996875, -17.047868) " points="53.810625 9.37235294 42.4325 20.8113235 36.183125 14.5354412 34.244375 16.4914706 42.4325 24.7233824 55.749375 11.3283824"></polygon> </g> </g> </svg> 